<svg width="1000" height="1000" viewBox="0 0 1000 1000" fill="none" xmlns="http://www.w3.org/2000/svg">
<path d="M551.185 613.616H585.377V647.808H551.185V613.616ZM551.185 579.425H585.377V613.616H551.185V579.425ZM585.377 579.425H619.568V613.616H585.377V579.425ZM585.377 613.616H619.568V647.808H585.377V613.616ZM585.377 545.233H619.568V579.425H585.377V545.233ZM619.568 545.233H653.76V579.425H619.568V545.233ZM687.952 545.233H722.144V579.425H687.952V545.233ZM722.144 545.233H756.335V579.425H722.144V545.233ZM722.144 613.616H756.335V647.808H722.144V613.616ZM756.335 613.616H790.527V647.808H756.335V613.616ZM756.335 579.425H790.527V613.616H756.335V579.425ZM619.568 511.041H653.76V545.233H619.568V511.041ZM653.76 511.041H687.952V545.233H653.76V511.041ZM687.952 511.041H722.144V545.233H687.952V511.041ZM687.952 476.849H722.144V511.041H687.952V476.849ZM722.144 476.849H756.335V511.041H722.144V476.849ZM722.144 442.657H756.335V476.849H722.144V442.657ZM722.144 408.466H756.335V442.657H722.144V408.466ZM756.335 408.466H790.527V442.657H756.335V408.466ZM756.335 442.657H790.527V476.849H756.335V442.657ZM619.568 476.849H653.76V511.041H619.568V476.849ZM585.377 476.849H619.568V511.041H585.377V476.849ZM585.377 442.657H619.568V476.849H585.377V442.657ZM585.377 408.466H619.568V442.657H585.377V408.466ZM551.185 408.466H585.377V442.657H551.185V408.466ZM551.185 442.657H585.377V476.849H551.185V442.657ZM619.568 579.425H653.76V613.616H619.568V579.425ZM687.952 579.425H722.144V613.616H687.952V579.425ZM722.144 579.425H756.335V613.616H722.144V579.425ZM619.568 442.657H653.76V476.849H619.568V442.657ZM687.952 442.657H722.144V476.849H687.952V442.657ZM653.76 476.849H687.952V511.041H653.76V476.849ZM653.76 545.233H687.952V579.425H653.76V545.233ZM551.185 647.808H585.377V682H551.185V647.808ZM585.377 647.808H619.568V682H585.377V647.808ZM722.144 647.808H756.335V682H722.144V647.808ZM756.335 647.808H790.527V682H756.335V647.808Z" fill="black"/>
<path d="M448.342 318H483.247V354.4H448.342V318ZM483.247 318H518.151V354.4H483.247V318ZM483.247 354.4H518.151V390.8H483.247V354.4ZM483.247 390.8H518.151V427.2H483.247V390.8ZM483.247 427.2H518.151V463.6H483.247V427.2ZM483.247 463.6H518.151V500H483.247V463.6ZM483.247 500H518.151V536.4H483.247V500ZM448.342 500H483.247V536.4H448.342V500ZM448.342 536.4H483.247V572.8H448.342V536.4ZM448.342 572.8H483.247V609.2H448.342V572.8ZM448.342 609.2H483.247V645.6H448.342V609.2ZM448.342 645.6H483.247V682H448.342V645.6ZM483.247 645.6H518.151V682H483.247V645.6ZM483.247 609.2H518.151V645.6H483.247V609.2ZM483.247 572.8H518.151V609.2H483.247V572.8ZM483.247 536.4H518.151V572.8H483.247V536.4ZM448.342 463.6H483.247V500H448.342V463.6ZM448.342 427.2H483.247V463.6H448.342V427.2ZM448.342 390.8H483.247V427.2H448.342V390.8ZM448.342 354.4H483.247V390.8H448.342V354.4Z" fill="black"/>
<path d="M243.192 340.082H277.384V374.274H243.192V340.082ZM243.192 374.274H277.384V408.466H243.192V374.274ZM243.192 408.466H277.384V442.658H243.192V408.466ZM243.192 442.658H277.384V476.849H243.192V442.658ZM209 442.658H243.192V476.849H209V442.658ZM209 408.466H243.192V442.658H209V408.466ZM209 374.274H243.192V408.466H209V374.274ZM209 476.849H243.192V511.041H209V476.849ZM209 511.041H243.192V545.233H209V511.041ZM209 545.233H243.192V579.425H209V545.233ZM243.192 511.041H277.384V545.233H243.192V511.041ZM243.192 476.849H277.384V511.041H243.192V476.849ZM243.192 545.233H277.384V579.425H243.192V545.233ZM243.192 579.425H277.384V613.616H243.192V579.425ZM209 613.616H243.192V647.808H209V613.616ZM209 579.425H243.192V613.616H209V579.425ZM209 647.808H243.192V682H209V647.808ZM243.192 647.808H277.384V682H243.192V647.808ZM243.192 613.616H277.384V647.808H243.192V613.616ZM277.384 340.082H311.575V374.274H277.384V340.082ZM311.575 340.082H345.767V374.274H311.575V340.082ZM345.767 340.082H379.959V374.274H345.767V340.082ZM379.959 340.082H414.151V374.274H379.959V340.082ZM345.767 374.274H379.959V408.466H345.767V374.274ZM311.575 374.274H345.767V408.466H311.575V374.274ZM277.384 374.274H311.575V408.466H277.384V374.274ZM277.384 511.041H311.575V545.233H277.384V511.041ZM311.575 476.849H345.767V511.041H311.575V476.849ZM277.384 476.849H311.575V511.041H277.384V476.849ZM311.575 511.041H345.767V545.233H311.575V511.041ZM379.959 374.274H414.151V408.466H379.959V374.274ZM345.767 476.849H379.959V511.041H345.767V476.849ZM345.767 511.041H379.959V545.233H345.767V511.041Z" fill="black"/>
</svg>
