<svg width="1000" height="1000" viewBox="0 0 1000 1000" fill="none" xmlns="http://www.w3.org/2000/svg">
<path d="M199.192 383.274V349.082H165V383.274H199.192Z" fill="#ACACAC"/>
<path d="M335.959 349.082V383.274H370.151V349.082H335.959Z" fill="#E0E0E0"/>
<path d="M370.151 383.274H335.959V417.466H370.151V383.274Z" fill="#959595"/>
<path d="M301.767 485.849V520.041H335.959V485.849H301.767Z" fill="#A2A2A2"/>
<path d="M199.192 349.082V383.274H233.384V349.082H199.192Z" fill="#E7E7E7"/>
<path d="M199.192 656.808V691H233.384V656.808H199.192Z" fill="#636363"/>
<path d="M199.192 622.616H165V656.808H199.192V622.616Z" fill="#D3D3D3"/>
<path d="M233.384 622.616H199.192V656.808H233.384V622.616Z" fill="#ECECEC"/>
<path d="M301.767 520.041V554.233H335.959V520.041H301.767Z" fill="#E0DCDC"/>
<path fill-rule="evenodd" clip-rule="evenodd" d="M199.192 383.274H165V417.466V451.658H199.192V485.849H165V520.041V554.233V588.425V622.616H199.192H233.384V588.425V554.233H267.575H301.767V520.041V485.849H267.575H233.384V451.658V417.466H267.575H301.767H335.959V383.274V349.082H301.767H267.575H233.384V383.274H199.192ZM199.192 656.808H165V691H199.192V656.808Z" fill="white"/>
<path d="M199.192 485.849V451.658H165V485.849H199.192Z" fill="#E9E9E9"/>
<path d="M165 691V656.808H131V691H165Z" fill="#868686"/>
<path d="M301.767 349.082H335.959V315H301.767V349.082Z" fill="#7E7373"/>
<path d="M301.767 554.233H267.575V588.425H301.767V554.233Z" fill="#BEBEBE"/>
<path d="M473.959 363.4V399.8H505.5V363.4H473.959Z" fill="#6D6D6D"/>
<path d="M473.959 509H439.055V545.4H473.959V509Z" fill="#D4D4D4"/>
<path d="M439.055 363.4H404.151V399.8H439.055V363.4Z" fill="#BCBCBC"/>
<path d="M439.055 327H404.151V363.4H439.055V327Z" fill="#7B7B7B"/>
<path fill-rule="evenodd" clip-rule="evenodd" d="M439.055 327H473.959V363.4V399.8V436.2V472.6V509H439.055V545.4V581.8H473.959V618.2V654.6V691H439.055H404.151V654.6V618.2V581.8V545.4V509V472.6V436.2V399.8H439.055V363.4V327Z" fill="white"/>
<path d="M473.959 545.4H439.055V581.8H473.959V545.4Z" fill="#939292"/>
<path d="M751.342 587.959H717.151V622.151H751.342V587.959Z" fill="#AAAAAA"/>
<path d="M751.342 417V451.192H784V417H751.342Z" fill="#929292"/>
<path d="M751.342 485.384H717.151V519.575H751.342V485.384Z" fill="#7F7F7F"/>
<path d="M648.767 451.192V485.384H682.959V451.192H648.767Z" fill="#A5A5A5"/>
<path d="M546.192 519.575H580.384V485.384H546.192V519.575Z" fill="#747474"/>
<path d="M512 587.959V622.151H546.192V587.959H512Z" fill="#5B5B5B"/>
<path d="M512 690.534V656.342H474.5V690.534H512Z" fill="#414141"/>
<path fill-rule="evenodd" clip-rule="evenodd" d="M717.151 622.151V587.959V553.767H682.959V519.575H717.151V485.384H751.342V451.192V417H717.151H682.959V451.192V485.384H648.767H614.575V451.192H580.384V417H546.192H512V451.192H546.192V485.384H580.384V519.575V553.767H546.192V587.959V622.151H512V656.342V690.534H546.192H580.384V656.342V622.151H614.575V587.959H648.767V622.151H682.959V656.342V690.534H717.151H751.342V656.342V622.151H717.151Z" fill="white"/>
<path d="M512 485.384H546.192V451.192H512V485.384Z" fill="#D7D7D7"/>
<path d="M546.192 417H580.384V384.5H546.192V417Z" fill="#ABABAB"/>
</svg>
